# Blender v2.79 (sub 0) OBJ File: 'cauldronLowPoly.blend'
# www.blender.org
mtllib iron_cauldron_water.mtl
o Water
v 0.507987 0.676627 0.754414
v 0.323832 0.676627 0.680455
v 0.245913 0.676627 0.497941
v 0.319872 0.676627 0.313787
v 0.502386 0.676627 0.235867
v 0.686540 0.676627 0.309826
v 0.764459 0.676627 0.492340
v 0.690501 0.676627 0.676494
v 0.505186 0.676627 0.495141
vt 0.707106 0.000000
vt 1.000000 0.292893
vt 0.500000 0.500000
vt 1.000000 0.707106
vt 0.707106 1.000000
vt 0.292893 1.000000
vt 0.000001 0.707108
vt 0.000000 0.292894
vt 0.292893 0.000000
vn 0.0000 1.0000 0.0000
usemtl Water
f 3/1/1 2/2/1 9/3/1
f 2/2/1 1/4/1 9/3/1
f 1/4/1 8/5/1 9/3/1
f 8/5/1 7/6/1 9/3/1
f 7/6/1 6/7/1 9/3/1
f 6/7/1 5/8/1 9/3/1
f 5/8/1 4/9/1 9/3/1
f 4/9/1 3/1/1 9/3/1
