# Blender v2.79 (sub 0) OBJ File: 'cauldronLowPoly.blend'
# www.blender.org
mtllib iron_cauldron.mtl
o Cauldron
v 0.836658 0.349418 0.832102
v 0.505202 0.349418 0.969395
v 0.973951 0.349418 0.500647
v 0.836658 0.349418 0.169192
v 0.505202 0.349418 0.031898
v 0.173747 0.349418 0.169192
v 0.036454 0.349418 0.500647
v 0.173747 0.349418 0.832102
v 0.257568 0.556225 0.748281
v 0.505202 0.556225 0.850854
v 0.505202 0.209684 0.758555
v 0.505202 0.746487 0.786568
v 0.322834 0.209684 0.683015
v 0.303025 0.746487 0.702824
v 0.247294 0.209684 0.500647
v 0.219281 0.746487 0.500647
v 0.322834 0.209684 0.318278
v 0.303025 0.746487 0.298470
v 0.505202 0.209684 0.242739
v 0.505202 0.746487 0.214725
v 0.687571 0.209684 0.318278
v 0.707380 0.746487 0.298470
v 0.763111 0.209684 0.500647
v 0.791124 0.746487 0.500647
v 0.687571 0.209684 0.683015
v 0.707380 0.746487 0.702824
v 0.154995 0.556225 0.500647
v 0.257568 0.556225 0.253013
v 0.505202 0.556225 0.150439
v 0.752837 0.556225 0.253013
v 0.855410 0.556225 0.500647
v 0.752837 0.556225 0.748281
v 0.505202 0.746487 0.723087
v 0.347913 0.746487 0.657936
v 0.282762 0.746487 0.500647
v 0.347913 0.746487 0.343358
v 0.505202 0.746487 0.278207
v 0.662491 0.746487 0.343358
v 0.727643 0.746487 0.500647
v 0.662491 0.746487 0.657936
v 0.505202 0.281020 0.723087
v 0.347913 0.281020 0.657936
v 0.282762 0.281020 0.500647
v 0.347913 0.281020 0.343358
v 0.505202 0.281020 0.278207
v 0.662491 0.281020 0.343358
v 0.727643 0.281020 0.500647
v 0.662491 0.281020 0.657936
v 0.580927 0.079278 0.852897
v 0.580927 0.149834 0.987332
v 0.429101 0.079278 0.852897
v 0.429101 0.149834 0.987332
v 0.548539 -0.002164 0.913050
v 0.548539 -0.006455 0.999994
v 0.461489 -0.002164 0.913050
v 0.461489 -0.006455 0.999994
v 0.580927 0.258262 0.758959
v 0.580927 0.328819 0.893395
v 0.429101 0.258262 0.758959
v 0.429101 0.328819 0.893395
v 0.154148 0.079278 0.400700
v 0.031338 0.149834 0.346016
v 0.215907 0.079278 0.262003
v 0.093096 0.149834 0.207318
v 0.112371 -0.002164 0.346644
v 0.032945 -0.006455 0.311278
v 0.147780 -0.002164 0.267121
v 0.068354 -0.006455 0.231755
v 0.239963 0.258262 0.438911
v 0.117152 0.328819 0.384227
v 0.301721 0.258262 0.300214
v 0.178911 0.328819 0.245529
v 0.794809 0.079278 0.240806
v 0.910756 0.149834 0.172768
v 0.871648 0.079278 0.371752
v 0.987595 0.149834 0.303714
v 0.863082 -0.002164 0.238296
v 0.938069 -0.006455 0.194294
v 0.907138 -0.002164 0.313374
v 0.982125 -0.006455 0.269372
v 0.713790 0.258262 0.288347
v 0.829738 0.328819 0.220310
v 0.790629 0.258262 0.419293
v 0.906576 0.328819 0.351256
v 0.505202 0.209684 0.500647
v 0.505202 0.281020 0.500647
vt 0.177868 0.351221
vt 0.136245 0.452229
vt 0.000000 0.319746
vt 0.102905 0.278328
vt 0.283881 0.351243
vt 0.328924 0.452269
vt 0.000000 0.132426
vt 0.102905 0.175264
vt 0.358843 0.278382
vt 0.465169 0.319843
vt 0.358843 0.175317
vt 0.465169 0.132523
vt 0.283881 0.102424
vt 0.328924 0.000040
vt 0.177868 0.102402
vt 0.136245 0.000000
vt 0.469136 0.653885
vt 0.582495 0.697233
vt 0.579530 0.827113
vt 0.465169 0.827728
vt 0.587852 0.175695
vt 0.695241 0.172875
vt 0.705490 0.262260
vt 0.600405 0.285176
vt 0.582495 0.955820
vt 0.469136 1.000000
vt 0.685869 0.720765
vt 0.683449 0.826804
vt 0.485848 0.332240
vt 0.605115 0.368574
vt 0.589665 0.507721
vt 0.465169 0.518486
vt 0.685869 0.931885
vt 0.605115 0.608879
vt 0.485848 0.653885
vt 0.710071 0.392504
vt 0.697457 0.506108
vt 0.718444 0.332240
vt 0.833934 0.368295
vt 0.827679 0.505998
vt 0.710071 0.516552
vt 0.710071 0.588697
vt 0.833934 0.620887
vt 0.718444 0.670330
vt 0.938255 0.388841
vt 0.933148 0.501266
vt 0.200496 0.728171
vt 0.083048 0.728082
vt 0.096086 0.697473
vt 0.187458 0.697542
vt 0.481971 0.000000
vt 0.600405 0.036956
vt 0.465169 0.185700
vt 0.938255 0.595066
vt 0.481971 0.332240
vt 0.705490 0.059604
vt 0.705490 0.151846
vt 0.705490 0.062966
vt 0.815785 0.107323
vt 0.283545 0.454147
vt 0.367651 0.452269
vt 0.367651 0.694959
vt 0.283545 0.696837
vt 0.083048 0.452269
vt 0.200496 0.452358
vt 0.187458 0.482967
vt 0.096086 0.482897
vt 0.000000 0.647235
vt 0.031477 0.634576
vt 0.283545 0.647450
vt 0.252068 0.634744
vt 0.000000 0.532990
vt 0.031477 0.545696
vt 0.283545 0.533205
vt 0.252068 0.545863
vt 0.283545 0.709125
vt 0.354413 0.696837
vt 0.354413 0.933998
vt 0.283545 0.946285
vt 0.875085 0.911873
vt 0.800127 0.917521
vt 0.800127 0.675977
vt 0.875085 0.670330
vt 0.156128 0.962819
vt 0.091458 0.979196
vt 0.091458 0.744548
vt 0.156128 0.728171
vt 0.000000 0.979196
vt 0.000000 0.744548
vt 0.452526 0.454050
vt 0.452526 0.696740
vt 0.445404 0.698800
vt 0.445404 0.935960
vt 0.710071 0.915801
vt 0.710071 0.674258
vt 0.907910 0.186554
vt 0.987180 0.185613
vt 0.987622 0.262713
vt 0.907969 0.261879
vt 0.705490 0.320212
vt 0.787002 0.320095
vt 0.787002 0.214645
vt 0.705490 0.214762
vt 0.875085 0.850393
vt 0.953372 0.850393
vt 0.933164 0.931360
vt 0.888278 0.931360
vt 0.787002 0.320017
vt 0.858392 0.295281
vt 0.858392 0.214645
vt 0.787002 0.239381
vt 0.941447 0.108179
vt 0.985920 0.106663
vt 0.986475 0.153409
vt 0.941025 0.153948
vt 0.236874 0.797385
vt 0.156128 0.799597
vt 0.191247 0.728171
vt 0.231130 0.749704
vt 0.956597 0.744826
vt 0.875085 0.744944
vt 0.883966 0.693448
vt 0.924227 0.670330
vt 0.987180 0.185613
vt 0.907910 0.186554
vt 1.000000 0.000000
vt 1.000000 0.079275
vt 0.926081 0.079275
vt 0.926081 0.000000
vt 0.956597 0.850276
vt 0.875085 0.850393
vt 0.907910 0.186554
vt 0.987180 0.185613
vt 0.987622 0.262713
vt 0.907969 0.261879
vt 0.705490 0.320212
vt 0.787002 0.320095
vt 0.787002 0.214645
vt 0.705490 0.214762
vt 0.875085 0.850393
vt 0.953372 0.850393
vt 0.933164 0.931360
vt 0.888278 0.931360
vt 0.787002 0.320017
vt 0.858392 0.295281
vt 0.858392 0.214645
vt 0.787002 0.239381
vt 0.941447 0.108179
vt 0.985920 0.106663
vt 0.986475 0.153409
vt 0.941025 0.153948
vt 0.236874 0.797385
vt 0.156128 0.799597
vt 0.191247 0.728171
vt 0.231130 0.749704
vt 0.956597 0.744826
vt 0.875085 0.744944
vt 0.883966 0.693448
vt 0.924227 0.670330
vt 1.000000 0.000000
vt 1.000000 0.079275
vt 0.926081 0.079275
vt 0.926081 0.000000
vt 0.956597 0.850276
vt 0.875085 0.850393
vt 0.987622 0.262713
vt 0.907969 0.261879
vt 0.705490 0.320212
vt 0.787002 0.320095
vt 0.787002 0.214645
vt 0.705490 0.214762
vt 0.875085 0.850393
vt 0.953372 0.850393
vt 0.933164 0.931360
vt 0.888278 0.931360
vt 0.787002 0.320017
vt 0.858392 0.295281
vt 0.858392 0.214645
vt 0.787002 0.239381
vt 0.941447 0.108179
vt 0.985920 0.106663
vt 0.986475 0.153409
vt 0.941025 0.153948
vt 0.236874 0.797385
vt 0.156128 0.799597
vt 0.191247 0.728171
vt 0.231130 0.749704
vt 0.956597 0.744826
vt 0.875085 0.744944
vt 0.883966 0.693448
vt 0.924227 0.670330
vt 1.000000 0.000000
vt 1.000000 0.079275
vt 0.926081 0.079275
vt 0.926081 0.000000
vt 0.956597 0.850276
vt 0.875085 0.850393
vt 0.230874 0.226823
vt 0.770099 0.000069
vt 0.861471 0.000000
vt 0.926081 0.062799
vt 0.926081 0.151679
vt 0.861471 0.214576
vt 0.770100 0.214645
vn 0.2486 -0.9362 0.2486
vn 0.6928 -0.2001 0.6928
vn 0.0000 -0.2001 0.9798
vn 0.0000 -0.9362 0.3515
vn 0.3515 -0.9362 0.0000
vn 0.9798 -0.2001 0.0000
vn -0.6928 -0.2001 0.6928
vn -0.2486 -0.9362 0.2486
vn 0.2486 -0.9362 -0.2486
vn 0.6928 -0.2001 -0.6928
vn 0.0000 -0.9362 -0.3515
vn 0.0000 -0.2001 -0.9798
vn -0.2486 -0.9362 -0.2486
vn -0.6928 -0.2001 -0.6928
vn -0.3515 -0.9362 0.0000
vn -0.9798 -0.2001 0.0000
vn -0.6418 0.4198 0.6418
vn -0.9076 0.4198 0.0000
vn 0.0000 0.4198 0.9076
vn 0.0000 0.7479 0.6638
vn -0.4694 0.7479 0.4694
vn -0.6418 0.4198 -0.6418
vn -0.6638 0.7479 0.0000
vn 0.0000 0.4198 -0.9076
vn -0.4694 0.7479 -0.4694
vn 0.6418 0.4198 -0.6418
vn 0.0000 0.7479 -0.6638
vn 0.9076 0.4198 0.0000
vn 0.4694 0.7479 -0.4694
vn 0.6418 0.4198 0.6418
vn 0.6638 0.7479 0.0000
vn 0.4203 0.8042 -0.4203
vn 0.5943 0.8042 0.0000
vn 0.4694 0.7479 0.4694
vn 0.5490 0.6302 -0.5490
vn 0.0000 0.6302 -0.7764
vn 0.0000 1.0000 0.0000
vn -0.4203 0.8042 -0.4203
vn -0.5943 0.8042 0.0000
vn -0.7764 0.6302 0.0000
vn -0.5490 0.6302 -0.5490
vn -0.4203 0.8042 0.4203
vn 0.0000 0.8042 -0.5943
vn 0.4203 0.8042 0.4203
vn 0.0000 0.8042 0.5943
vn 0.0000 0.6302 0.7764
vn -0.5490 0.6302 0.5490
vn 0.7764 0.6302 0.0000
vn 0.5490 0.6302 0.5490
vn 0.2170 -0.4380 0.8723
vn 0.7935 -0.4380 -0.4224
vn 0.9470 0.2429 -0.2103
vn 0.4772 0.2429 0.8445
vn 0.6837 0.1403 0.7161
vn 0.7087 -0.4380 -0.5531
vn 0.5773 0.2429 -0.7795
vn 0.5773 0.7795 0.2429
vn -0.6837 0.1403 0.7161
vn -0.4841 -0.6150 0.6224
vn 0.4841 -0.6150 0.6224
vn -0.5773 0.7795 0.2429
vn -0.5201 -0.7807 -0.3464
vn 0.5201 -0.7807 -0.3464
vn -0.7087 -0.4380 -0.5531
vn -0.5773 0.2429 -0.7795
vn -0.8357 -0.4380 -0.3313
vn -0.1184 -0.4380 0.8911
vn -0.3801 0.2429 0.8925
vn -0.9645 0.2429 -0.1034
vn -0.9323 0.1403 0.3332
vn -0.4567 0.7795 0.4286
vn -0.3761 0.1403 -0.9159
vn -0.3716 -0.6150 -0.6955
vn -0.7655 -0.6150 0.1891
vn 0.0129 0.7795 -0.6262
vn 0.5280 -0.7807 -0.3342
vn 0.1049 -0.7807 0.6160
vn 0.2716 0.1403 -0.9521
vn -0.0827 0.7795 -0.6209
vn 0.9637 0.1403 0.2272
vn 0.7818 -0.6150 0.1025
vn 0.2918 -0.6150 -0.7325
vn 0.5017 0.7795 0.3750
vn -0.0356 -0.7807 0.6239
vn -0.5620 -0.7807 -0.2732
vn 0.0000 -1.0000 0.0000
usemtl Metal
f 25/1/1 1/2/2 2/3/3 11/4/4
f 23/5/5 3/6/6 1/2/2 25/1/1
f 11/4/4 2/3/3 8/7/7 13/8/8
f 21/9/9 4/10/10 3/6/6 23/5/5
f 19/11/11 5/12/12 4/10/10 21/9/9
f 17/13/13 6/14/14 5/12/12 19/11/11
f 15/15/15 7/16/16 6/14/14 17/13/13
f 13/8/8 8/7/7 7/16/16 15/15/15
f 8/17/7 9/18/17 27/19/18 7/20/16
f 10/21/19 12/22/20 14/23/21 9/24/17
f 7/20/16 27/19/18 28/25/22 6/26/14
f 9/18/17 14/27/21 16/28/23 27/19/18
f 6/29/14 28/30/22 29/31/24 5/32/12
f 27/19/18 16/28/23 18/33/25 28/25/22
f 5/32/12 29/31/24 30/34/26 4/35/10
f 28/30/22 18/36/25 20/37/27 29/31/24
f 4/38/10 30/39/26 31/40/28 3/41/6
f 29/31/24 20/37/27 22/42/29 30/34/26
f 3/41/6 31/40/28 32/43/30 1/44/2
f 30/39/26 22/45/29 24/46/31 31/40/28
f 16/47/23 14/48/21 34/49/32 35/50/33
f 1/51/2 32/52/30 10/21/19 2/53/3
f 31/40/28 24/46/31 26/54/34 32/43/30
f 2/53/3 10/21/19 9/24/17 8/55/7
f 32/52/30 26/56/34 12/22/20 10/21/19
f 42/57/35 41/58/36 86/59/37
f 40/60/38 39/61/39 47/62/40 48/63/41
f 24/64/31 22/65/29 38/66/42 39/67/39
f 14/48/21 12/68/20 33/69/43 34/49/32
f 18/70/25 16/47/23 35/50/33 36/71/44
f 26/72/34 24/64/31 39/67/39 40/73/38
f 20/74/27 18/70/25 36/71/44 37/75/45
f 12/68/20 26/72/34 40/73/38 33/69/43
f 22/65/29 20/74/27 37/75/45 38/66/42
f 38/76/42 37/77/45 45/78/46 46/79/47
f 36/80/44 35/81/33 43/82/48 44/83/49
f 34/84/32 33/85/43 41/86/36 42/87/35
f 33/85/43 40/88/38 48/89/41 41/86/36
f 39/61/39 38/90/42 46/91/47 47/62/40
f 37/77/45 36/92/44 44/93/49 45/78/46
f 35/81/33 34/94/32 42/95/35 43/82/48
f 61/96/50 63/97/51 71/98/52 69/99/53
f 50/100/54 49/101/55 57/102/56 58/103/57
f 50/104/54 52/105/58 56/106/59 54/107/60
f 52/108/58 50/109/54 58/110/57 60/111/61
f 54/112/60 56/113/59 55/114/62 53/115/63
f 49/116/55 50/117/54 54/118/60 53/119/63
f 52/120/58 51/121/64 55/122/62 56/123/59
f 51/124/64 49/125/55 53/115/63 55/114/62
f 60/126/61 58/127/57 57/128/56 59/129/65
f 52/120/58 60/130/61 59/131/65 51/121/64
f 73/132/66 75/133/67 83/134/68 81/135/69
f 62/136/70 61/137/50 69/138/53 70/139/71
f 62/140/70 64/141/72 68/142/73 66/143/74
f 64/144/72 62/145/70 70/146/71 72/147/75
f 66/148/74 68/149/73 67/150/76 65/151/77
f 61/152/50 62/153/70 66/154/74 65/155/77
f 64/156/72 63/157/51 67/158/76 68/159/73
f 63/97/51 61/96/50 65/151/77 67/150/76
f 72/160/75 70/161/71 69/162/53 71/163/52
f 64/156/72 72/164/75 71/165/52 63/157/51
f 49/125/55 51/124/64 59/166/65 57/167/56
f 74/168/78 73/169/66 81/170/69 82/171/79
f 74/172/78 76/173/80 80/174/81 78/175/82
f 76/176/80 74/177/78 82/178/79 84/179/83
f 78/180/82 80/181/81 79/182/84 77/183/85
f 73/184/66 74/185/78 78/186/82 77/187/85
f 76/188/80 75/189/67 79/190/84 80/191/81
f 75/133/67 73/132/66 77/183/85 79/182/84
f 84/192/83 82/193/79 81/194/69 83/195/68
f 76/188/80 84/196/83 83/197/68 75/189/67
f 11/4/4 13/8/8 85/198/86
f 13/8/8 15/15/15 85/198/86
f 15/15/15 17/13/13 85/198/86
f 17/13/13 19/11/11 85/198/86
f 19/11/11 21/9/9 85/198/86
f 21/9/9 23/5/5 85/198/86
f 23/5/5 25/1/1 85/198/86
f 25/1/1 11/4/4 85/198/86
f 41/58/36 48/199/41 86/59/37
f 48/199/41 47/200/40 86/59/37
f 47/200/40 46/201/47 86/59/37
f 46/201/47 45/202/46 86/59/37
f 45/202/46 44/203/49 86/59/37
f 44/203/49 43/204/48 86/59/37
f 43/204/48 42/57/35 86/59/37
