# Blender v2.79 (sub 0) OBJ File: 'cauldron.blend'
# www.blender.org
mtllib iron_cauldron_water.mtl
o Water_Cylinder.002
v 0.505186 0.676627 0.801145
v 0.475192 0.676627 0.799671
v 0.445487 0.676627 0.795265
v 0.416358 0.676627 0.787968
v 0.388083 0.676627 0.777851
v 0.360937 0.676627 0.765012
v 0.335179 0.676627 0.749574
v 0.311059 0.676627 0.731685
v 0.288808 0.676627 0.711518
v 0.268642 0.676627 0.689268
v 0.250753 0.676627 0.665147
v 0.235314 0.676627 0.639390
v 0.222475 0.676627 0.612243
v 0.212358 0.676627 0.583969
v 0.205062 0.676627 0.554839
v 0.200655 0.676627 0.525134
v 0.199182 0.676627 0.495140
v 0.200655 0.676627 0.465147
v 0.205062 0.676627 0.435442
v 0.212358 0.676627 0.406312
v 0.222475 0.676627 0.378038
v 0.235314 0.676627 0.350891
v 0.250753 0.676627 0.325134
v 0.268642 0.676627 0.301013
v 0.288808 0.676627 0.278763
v 0.311059 0.676627 0.258596
v 0.335179 0.676627 0.240707
v 0.360937 0.676627 0.225269
v 0.388083 0.676627 0.212430
v 0.416358 0.676627 0.202313
v 0.445488 0.676627 0.195016
v 0.475193 0.676627 0.190610
v 0.505186 0.676627 0.189137
v 0.535180 0.676627 0.190610
v 0.564885 0.676627 0.195016
v 0.594014 0.676627 0.202313
v 0.622289 0.676627 0.212430
v 0.649436 0.676627 0.225269
v 0.675193 0.676627 0.240708
v 0.699313 0.676627 0.258596
v 0.721564 0.676627 0.278763
v 0.741730 0.676627 0.301014
v 0.759619 0.676627 0.325134
v 0.775058 0.676627 0.350891
v 0.787897 0.676627 0.378038
v 0.798014 0.676627 0.406312
v 0.805310 0.676627 0.435442
v 0.809717 0.676627 0.465147
v 0.811190 0.676627 0.495140
v 0.809717 0.676627 0.525134
v 0.805310 0.676627 0.554839
v 0.798014 0.676627 0.583968
v 0.787897 0.676627 0.612243
v 0.775058 0.676627 0.639389
v 0.759619 0.676627 0.665147
v 0.741731 0.676627 0.689267
v 0.721564 0.676627 0.711518
v 0.699313 0.676627 0.731684
v 0.675193 0.676627 0.749573
v 0.649436 0.676627 0.765012
v 0.622289 0.676627 0.777851
v 0.594015 0.676627 0.787968
v 0.535181 0.676627 0.799671
v 0.564885 0.676627 0.795265
v 0.505186 0.676627 0.495141
v 0.505186 0.607363 0.495141
v 0.564885 0.607363 0.795265
v 0.535181 0.607363 0.799671
v 0.594015 0.607363 0.787968
v 0.622289 0.607363 0.777851
v 0.649436 0.607363 0.765012
v 0.675193 0.607363 0.749573
v 0.699313 0.607363 0.731684
v 0.721564 0.607363 0.711518
v 0.741731 0.607363 0.689267
v 0.759619 0.607363 0.665147
v 0.775058 0.607363 0.639389
v 0.787897 0.607363 0.612243
v 0.798014 0.607363 0.583968
v 0.805310 0.607363 0.554839
v 0.809717 0.607363 0.525134
v 0.811190 0.607363 0.495140
v 0.809717 0.607363 0.465147
v 0.805310 0.607363 0.435442
v 0.798014 0.607363 0.406312
v 0.787897 0.607363 0.378038
v 0.775058 0.607363 0.350891
v 0.759619 0.607363 0.325134
v 0.741730 0.607363 0.301014
v 0.721564 0.607363 0.278763
v 0.699313 0.607363 0.258596
v 0.675193 0.607363 0.240708
v 0.649436 0.607363 0.225269
v 0.622289 0.607363 0.212430
v 0.594014 0.607363 0.202313
v 0.564885 0.607363 0.195016
v 0.535180 0.607363 0.190610
v 0.505186 0.607363 0.189137
v 0.475193 0.607363 0.190610
v 0.445488 0.607363 0.195016
v 0.416358 0.607363 0.202313
v 0.388083 0.607363 0.212430
v 0.360937 0.607363 0.225269
v 0.335179 0.607363 0.240707
v 0.311059 0.607363 0.258596
v 0.288808 0.607363 0.278763
v 0.268642 0.607363 0.301013
v 0.250753 0.607363 0.325134
v 0.235314 0.607363 0.350891
v 0.222475 0.607363 0.378038
v 0.212358 0.607363 0.406312
v 0.205062 0.607363 0.435442
v 0.200655 0.607363 0.465147
v 0.199182 0.607363 0.495140
v 0.200655 0.607363 0.525134
v 0.205062 0.607363 0.554839
v 0.212358 0.607363 0.583969
v 0.222475 0.607363 0.612243
v 0.235314 0.607363 0.639390
v 0.250753 0.607363 0.665147
v 0.268642 0.607363 0.689268
v 0.288808 0.607363 0.711518
v 0.311059 0.607363 0.731685
v 0.335179 0.607363 0.749574
v 0.360937 0.607363 0.765012
v 0.388083 0.607363 0.777851
v 0.416358 0.607363 0.787968
v 0.445487 0.607363 0.795265
v 0.475192 0.607363 0.799671
v 0.505186 0.607363 0.801145
vt 0.573438 0.995085
vt 0.524557 0.999900
vt 0.500000 0.500000
vt 0.524557 0.999900
vt 0.475440 0.999900
vt 0.500000 0.500000
vt 0.426558 0.995085
vt 0.378385 0.985502
vt 0.331383 0.971244
vt 0.286005 0.952448
vt 0.242688 0.929294
vt 0.201849 0.902006
vt 0.163881 0.870846
vt 0.129150 0.836115
vt 0.097991 0.798147
vt 0.070703 0.757308
vt 0.047550 0.713990
vt 0.028754 0.668612
vt 0.014496 0.621610
vt 0.004914 0.573437
vt 0.000100 0.524557
vt 0.000100 0.475440
vt 0.004915 0.426559
vt 0.014497 0.378386
vt 0.028755 0.331384
vt 0.047551 0.286006
vt 0.070705 0.242689
vt 0.097993 0.201850
vt 0.129152 0.163882
vt 0.163883 0.129151
vt 0.201852 0.097992
vt 0.242691 0.070704
vt 0.286008 0.047550
vt 0.331386 0.028754
vt 0.378389 0.014496
vt 0.426562 0.004914
vt 0.475442 0.000100
vt 0.524559 0.000100
vt 0.573440 0.004914
vt 0.621613 0.014497
vt 0.668615 0.028755
vt 0.713993 0.047551
vt 0.757311 0.070705
vt 0.798150 0.097993
vt 0.836118 0.129152
vt 0.870849 0.163883
vt 0.902008 0.201851
vt 0.929296 0.242691
vt 0.952450 0.286008
vt 0.971246 0.331386
vt 0.985503 0.378389
vt 0.995086 0.426562
vt 0.999900 0.475442
vt 0.999900 0.524559
vt 0.995085 0.573440
vt 0.985503 0.621613
vt 0.971245 0.668615
vt 0.952448 0.713993
vt 0.929295 0.757311
vt 0.902007 0.798150
vt 0.870847 0.836118
vt 0.836116 0.870849
vt 0.798148 0.902008
vt 0.757309 0.929296
vt 0.713991 0.952449
vt 0.668613 0.971246
vt 0.621611 0.985503
vt 0.573438 0.995085
vt 0.621611 0.985503
vt 0.475440 0.999900
vt 0.426558 0.995085
vt 0.378385 0.985502
vt 0.331383 0.971244
vt 0.286005 0.952448
vt 0.242688 0.929294
vt 0.201849 0.902006
vt 0.163881 0.870846
vt 0.129150 0.836115
vt 0.097991 0.798147
vt 0.070703 0.757308
vt 0.047550 0.713990
vt 0.028754 0.668612
vt 0.014496 0.621610
vt 0.004914 0.573437
vt 0.000100 0.524557
vt 0.000100 0.475440
vt 0.004915 0.426559
vt 0.014497 0.378386
vt 0.028755 0.331384
vt 0.047551 0.286006
vt 0.070705 0.242689
vt 0.097993 0.201850
vt 0.129152 0.163882
vt 0.163883 0.129151
vt 0.201852 0.097992
vt 0.242691 0.070704
vt 0.286008 0.047550
vt 0.331386 0.028754
vt 0.378389 0.014496
vt 0.426562 0.004914
vt 0.475442 0.000100
vt 0.524559 0.000100
vt 0.573440 0.004914
vt 0.621613 0.014497
vt 0.668615 0.028755
vt 0.713993 0.047551
vt 0.757311 0.070705
vt 0.798150 0.097993
vt 0.836118 0.129152
vt 0.870849 0.163883
vt 0.902008 0.201851
vt 0.929296 0.242691
vt 0.952450 0.286008
vt 0.971246 0.331386
vt 0.985503 0.378389
vt 0.995086 0.426562
vt 0.999900 0.475442
vt 0.999900 0.524559
vt 0.995085 0.573440
vt 0.985503 0.621613
vt 0.971245 0.668615
vt 0.952448 0.713993
vt 0.929295 0.757311
vt 0.902007 0.798150
vt 0.870847 0.836118
vt 0.836116 0.870849
vt 0.798148 0.902008
vt 0.757309 0.929296
vt 0.713991 0.952449
vt 0.668613 0.971246
vn 0.0000 1.0000 0.0000
usemtl Water
s off
f 128/1/1 129/2/1 66/3/1
f 2/4/1 1/5/1 65/6/1
f 1/5/1 63/7/1 65/6/1
f 63/7/1 64/8/1 65/6/1
f 64/8/1 62/9/1 65/6/1
f 62/9/1 61/10/1 65/6/1
f 61/10/1 60/11/1 65/6/1
f 60/11/1 59/12/1 65/6/1
f 59/12/1 58/13/1 65/6/1
f 58/13/1 57/14/1 65/6/1
f 57/14/1 56/15/1 65/6/1
f 56/15/1 55/16/1 65/6/1
f 55/16/1 54/17/1 65/6/1
f 54/17/1 53/18/1 65/6/1
f 53/18/1 52/19/1 65/6/1
f 52/19/1 51/20/1 65/6/1
f 51/20/1 50/21/1 65/6/1
f 50/21/1 49/22/1 65/6/1
f 49/22/1 48/23/1 65/6/1
f 48/23/1 47/24/1 65/6/1
f 47/24/1 46/25/1 65/6/1
f 46/25/1 45/26/1 65/6/1
f 45/26/1 44/27/1 65/6/1
f 44/27/1 43/28/1 65/6/1
f 43/28/1 42/29/1 65/6/1
f 42/29/1 41/30/1 65/6/1
f 41/30/1 40/31/1 65/6/1
f 40/31/1 39/32/1 65/6/1
f 39/32/1 38/33/1 65/6/1
f 38/33/1 37/34/1 65/6/1
f 37/34/1 36/35/1 65/6/1
f 36/35/1 35/36/1 65/6/1
f 35/36/1 34/37/1 65/6/1
f 34/37/1 33/38/1 65/6/1
f 33/38/1 32/39/1 65/6/1
f 32/39/1 31/40/1 65/6/1
f 31/40/1 30/41/1 65/6/1
f 30/41/1 29/42/1 65/6/1
f 29/42/1 28/43/1 65/6/1
f 28/43/1 27/44/1 65/6/1
f 27/44/1 26/45/1 65/6/1
f 26/45/1 25/46/1 65/6/1
f 25/46/1 24/47/1 65/6/1
f 24/47/1 23/48/1 65/6/1
f 23/48/1 22/49/1 65/6/1
f 22/49/1 21/50/1 65/6/1
f 21/50/1 20/51/1 65/6/1
f 20/51/1 19/52/1 65/6/1
f 19/52/1 18/53/1 65/6/1
f 18/53/1 17/54/1 65/6/1
f 17/54/1 16/55/1 65/6/1
f 16/55/1 15/56/1 65/6/1
f 15/56/1 14/57/1 65/6/1
f 14/57/1 13/58/1 65/6/1
f 13/58/1 12/59/1 65/6/1
f 12/59/1 11/60/1 65/6/1
f 11/60/1 10/61/1 65/6/1
f 10/61/1 9/62/1 65/6/1
f 9/62/1 8/63/1 65/6/1
f 8/63/1 7/64/1 65/6/1
f 7/64/1 6/65/1 65/6/1
f 6/65/1 5/66/1 65/6/1
f 5/66/1 4/67/1 65/6/1
f 4/67/1 3/68/1 65/6/1
f 3/68/1 2/4/1 65/6/1
f 127/69/1 128/1/1 66/3/1
f 129/2/1 130/70/1 66/3/1
f 130/70/1 68/71/1 66/3/1
f 68/71/1 67/72/1 66/3/1
f 67/72/1 69/73/1 66/3/1
f 69/73/1 70/74/1 66/3/1
f 70/74/1 71/75/1 66/3/1
f 71/75/1 72/76/1 66/3/1
f 72/76/1 73/77/1 66/3/1
f 73/77/1 74/78/1 66/3/1
f 74/78/1 75/79/1 66/3/1
f 75/79/1 76/80/1 66/3/1
f 76/80/1 77/81/1 66/3/1
f 77/81/1 78/82/1 66/3/1
f 78/82/1 79/83/1 66/3/1
f 79/83/1 80/84/1 66/3/1
f 80/84/1 81/85/1 66/3/1
f 81/85/1 82/86/1 66/3/1
f 82/86/1 83/87/1 66/3/1
f 83/87/1 84/88/1 66/3/1
f 84/88/1 85/89/1 66/3/1
f 85/89/1 86/90/1 66/3/1
f 86/90/1 87/91/1 66/3/1
f 87/91/1 88/92/1 66/3/1
f 88/92/1 89/93/1 66/3/1
f 89/93/1 90/94/1 66/3/1
f 90/94/1 91/95/1 66/3/1
f 91/95/1 92/96/1 66/3/1
f 92/96/1 93/97/1 66/3/1
f 93/97/1 94/98/1 66/3/1
f 94/98/1 95/99/1 66/3/1
f 95/99/1 96/100/1 66/3/1
f 96/100/1 97/101/1 66/3/1
f 97/101/1 98/102/1 66/3/1
f 98/102/1 99/103/1 66/3/1
f 99/103/1 100/104/1 66/3/1
f 100/104/1 101/105/1 66/3/1
f 101/105/1 102/106/1 66/3/1
f 102/106/1 103/107/1 66/3/1
f 103/107/1 104/108/1 66/3/1
f 104/108/1 105/109/1 66/3/1
f 105/109/1 106/110/1 66/3/1
f 106/110/1 107/111/1 66/3/1
f 107/111/1 108/112/1 66/3/1
f 108/112/1 109/113/1 66/3/1
f 109/113/1 110/114/1 66/3/1
f 110/114/1 111/115/1 66/3/1
f 111/115/1 112/116/1 66/3/1
f 112/116/1 113/117/1 66/3/1
f 113/117/1 114/118/1 66/3/1
f 114/118/1 115/119/1 66/3/1
f 115/119/1 116/120/1 66/3/1
f 116/120/1 117/121/1 66/3/1
f 117/121/1 118/122/1 66/3/1
f 118/122/1 119/123/1 66/3/1
f 119/123/1 120/124/1 66/3/1
f 120/124/1 121/125/1 66/3/1
f 121/125/1 122/126/1 66/3/1
f 122/126/1 123/127/1 66/3/1
f 123/127/1 124/128/1 66/3/1
f 124/128/1 125/129/1 66/3/1
f 125/129/1 126/130/1 66/3/1
f 126/130/1 127/69/1 66/3/1
