# Blender v2.79 (sub 0) OBJ File: ''
# www.blender.org
mtllib magical_grinder.mtl
o Grinder
v 0.838032 -0.004472 0.022580
v 0.757263 0.888205 0.201401
v 0.838032 -0.004472 0.822841
v 0.757263 0.888205 0.742072
v 0.037771 -0.004472 0.022580
v 0.118541 0.888205 0.201401
v 0.037771 -0.004472 0.822841
v 0.118541 0.888205 0.742072
v 0.328637 0.652353 0.680694
v 0.328637 0.776984 0.680694
v 0.328637 0.652353 0.965100
v 0.328637 0.776984 0.965100
v 0.204006 0.652353 0.680694
v 0.204006 0.776984 0.680694
v 0.204006 0.652353 0.965100
v 0.204006 0.776984 0.965100
v 0.328637 0.652353 0.877943
v 0.328637 0.776984 0.877943
v 0.204006 0.652353 0.877943
v 0.204006 0.776984 0.877943
v 0.302624 0.190128 0.965100
v 0.177992 0.190128 0.965100
v 0.302624 0.190128 0.877943
v 0.177992 0.190128 0.877943
v 0.302624 0.105447 0.965100
v 0.177992 0.105447 0.965100
v 0.302624 0.105447 0.877943
v 0.177992 0.105447 0.877943
v 0.302624 0.190128 0.793262
v 0.177992 0.190128 0.793262
v 0.302624 0.105447 0.793262
v 0.177992 0.105447 0.793262
v 0.946415 0.835911 0.410737
v 0.946415 0.835911 0.535369
v 0.859258 0.835911 0.410737
v 0.859258 0.835911 0.535369
v 0.979347 0.463706 0.410737
v 0.979347 0.463706 0.535369
v 0.892190 0.463706 0.410737
v 0.892190 0.463706 0.535369
v 0.979347 0.379026 0.410737
v 0.979347 0.379026 0.535369
v 0.892190 0.379026 0.410737
v 0.892190 0.379026 0.535369
v 0.716946 0.463706 0.410737
v 0.716946 0.463706 0.535369
v 0.716946 0.379026 0.410737
v 0.716946 0.379026 0.535369
v 0.946415 0.967640 0.410737
v 0.946415 0.967640 0.535369
v 0.859258 0.967640 0.410737
v 0.859258 0.967640 0.535369
v 1.004018 0.831179 0.328365
v 1.004018 0.831179 0.617741
v 0.801654 0.831179 0.328365
v 0.801654 0.831179 0.617741
v 1.004018 0.955906 0.328365
v 1.004018 0.955906 0.617741
v 0.801654 0.955906 0.328365
v 0.801654 0.955906 0.617741
vt 0.320713 0.006901
vt 0.320842 0.358200
vt 0.007932 0.358200
vt 0.008329 0.006901
vt 0.640218 0.367423
vt 0.640436 0.718744
vt 0.330077 0.718744
vt 0.329130 0.367423
vt 0.321326 0.367438
vt 0.320721 0.718939
vt 0.007890 0.719522
vt 0.007387 0.367438
vt 0.640081 0.008065
vt 0.640478 0.359364
vt 0.329628 0.359364
vt 0.329443 0.008065
vt 0.673069 0.008148
vt 0.994180 0.008148
vt 0.994180 0.327878
vt 0.673069 0.327878
vt 0.968349 0.352728
vt 0.968349 0.631942
vt 0.695020 0.631942
vt 0.695020 0.352728
vt 0.876338 0.886513
vt 0.876338 0.932289
vt 0.844577 0.932289
vt 0.844577 0.886513
vt 0.993636 0.886545
vt 0.993636 0.932326
vt 0.948219 0.932326
vt 0.948219 0.886545
vt 0.812816 0.886560
vt 0.812816 0.932344
vt 0.740935 0.932344
vt 0.740935 0.886560
vt 0.889995 0.932289
vt 0.935398 0.932289
vt 0.935398 0.978073
vt 0.889995 0.978073
vt 0.211317 0.895724
vt 0.256374 0.895724
vt 0.256374 0.967611
vt 0.211317 0.967611
vt 0.481993 0.926807
vt 0.527051 0.926807
vt 0.527051 0.998693
vt 0.481993 0.998693
vt 0.481993 0.895043
vt 0.527051 0.895043
vt 0.844577 0.886560
vt 0.812816 0.680264
vt 0.844577 0.680264
vt 0.844577 0.932344
vt 0.948219 0.886513
vt 0.948219 0.932289
vt 0.876338 0.680258
vt 0.844577 0.680258
vt 0.844577 0.649156
vt 0.876338 0.649156
vt 0.690134 0.696275
vt 0.742046 0.696275
vt 0.742046 0.932002
vt 0.690134 0.932002
vt 0.948219 0.680262
vt 0.993636 0.680262
vt 0.844577 0.932289
vt 0.889995 0.932289
vt 0.889995 0.964306
vt 0.844577 0.964306
vt 0.948219 0.649156
vt 0.993636 0.649156
vt 0.812816 0.649156
vt 0.781957 0.680264
vt 0.781957 0.649156
vt 0.844577 0.649156
vt 0.256400 0.926527
vt 0.256400 0.881106
vt 0.287005 0.881106
vt 0.287005 0.926527
vt 0.907197 0.649156
vt 0.907197 0.680258
vt 0.889995 0.995415
vt 0.844577 0.995415
vt 0.287014 0.790263
vt 0.287014 0.835684
vt 0.256400 0.835684
vt 0.256400 0.790263
vt 0.304171 0.789582
vt 0.335680 0.789582
vt 0.323774 0.925221
vt 0.292265 0.925221
vt 0.450484 0.925189
vt 0.481993 0.925189
vt 0.481993 0.956041
vt 0.450484 0.956041
vt 0.438578 0.789582
vt 0.470087 0.789582
vt 0.121168 0.790263
vt 0.166225 0.790263
vt 0.166225 0.925908
vt 0.121168 0.925908
vt 0.076111 0.790263
vt 0.121168 0.790263
vt 0.121168 0.926122
vt 0.076111 0.926122
vt 0.527051 0.895043
vt 0.572108 0.895043
vt 0.572108 0.926807
vt 0.527051 0.926807
vt 0.121168 0.956977
vt 0.076111 0.956977
vt 0.323774 0.956080
vt 0.387129 0.925221
vt 0.387129 0.956080
vt 0.292265 0.956080
vt 0.256400 0.881106
vt 0.256400 0.835684
vt 0.287014 0.835684
vt 0.287014 0.881106
vt 0.387129 0.956041
vt 0.387129 0.925189
vt 0.572108 0.990674
vt 0.527051 0.990674
vt 0.166225 0.989775
vt 0.121168 0.989775
vt 0.121168 0.925908
vt 0.166225 0.925908
vt 0.023776 0.865704
vt 0.055286 0.865704
vt 0.076111 0.895724
vt 0.002951 0.895724
vt 0.023776 0.820283
vt 0.002951 0.790263
vt 0.502818 0.865023
vt 0.534328 0.865023
vt 0.555153 0.895043
vt 0.481993 0.895043
vt 0.534328 0.819602
vt 0.555153 0.789582
vt 0.211317 0.790263
vt 0.211317 0.895724
vt 0.166225 0.895724
vt 0.166225 0.790263
vt 0.048040 0.895724
vt 0.048040 0.969475
vt 0.002951 0.969475
vt 0.002951 0.895724
vt 0.211304 0.895724
vt 0.211304 0.969475
vt 0.166225 0.969475
vt 0.166225 0.895724
vt 0.256400 0.790263
vt 0.256400 0.895724
vt 0.211317 0.895724
vt 0.211317 0.790263
vt 0.502818 0.819602
vt 0.481993 0.789582
vt 0.055286 0.820283
vt 0.076111 0.790263
vn 0.9959 0.0901 0.0000
vn 0.0000 0.0901 0.9959
vn -0.9959 0.0901 0.0000
vn 0.0000 0.1964 -0.9805
vn 0.0000 -1.0000 0.0000
vn 0.0000 1.0000 0.0000
vn 1.0000 0.0000 0.0000
vn 0.0000 0.0000 1.0000
vn -1.0000 0.0000 0.0000
vn 0.0000 0.0000 -1.0000
vn -0.9984 0.0562 0.0000
vn 0.9984 -0.0562 0.0000
vn -0.9961 -0.0881 0.0000
vn 0.9961 0.0881 0.0000
vn 0.0000 -0.9984 -0.0574
vn 0.0819 -0.9966 0.0000
vn 0.0000 0.9900 0.1410
vn -0.1996 0.9799 0.0000
vn 0.0000 0.9900 -0.1410
vn 0.1996 0.9799 0.0000
vn 0.0000 -0.9984 0.0574
vn -0.0819 -0.9966 0.0000
usemtl Grinder
f 1/1/1 2/2/1 4/3/1 3/4/1
f 3/5/2 4/6/2 8/7/2 7/8/2
f 7/9/3 8/10/3 6/11/3 5/12/3
f 5/13/4 6/14/4 2/15/4 1/16/4
f 3/17/5 7/18/5 5/19/5 1/20/5
f 8/21/6 4/22/6 2/23/6 6/24/6
f 17/25/7 18/26/7 12/27/7 11/28/7
f 11/29/8 12/30/8 16/31/8 15/32/8
f 19/33/9 20/34/9 14/35/9 13/36/9
f 13/37/10 14/38/10 10/39/10 9/40/10
f 17/41/5 19/42/5 13/43/5 9/44/5
f 20/45/6 18/46/6 10/47/6 14/48/6
f 16/49/6 12/50/6 18/46/6 20/45/6
f 15/51/11 19/33/11 24/52/11 22/53/11
f 15/51/9 16/54/9 20/34/9 19/33/9
f 9/55/7 10/56/7 18/26/7 17/25/7
f 23/57/7 21/58/7 25/59/7 27/60/7
f 17/25/12 11/28/12 21/58/12 23/57/12
f 19/61/10 17/62/10 23/63/10 24/64/10
f 11/29/8 15/32/8 22/65/8 21/66/8
f 25/67/5 26/68/5 28/69/5 27/70/5
f 21/66/8 22/65/8 26/71/8 25/72/8
f 28/73/9 24/52/9 30/74/9 32/75/9
f 22/53/9 24/52/9 28/73/9 26/76/9
f 30/77/10 29/78/10 31/79/10 32/80/10
f 23/57/7 27/60/7 31/81/7 29/82/7
f 27/70/5 28/69/5 32/83/5 31/84/5
f 24/85/6 23/86/6 29/87/6 30/88/6
f 34/89/8 36/90/8 40/91/8 38/92/8
f 39/93/10 37/94/10 41/95/10 43/96/10
f 35/97/10 33/98/10 37/94/10 39/93/10
f 36/99/13 35/100/13 39/101/13 40/102/13
f 33/103/14 34/104/14 38/105/14 37/106/14
f 41/107/5 42/108/5 44/109/5 43/110/5
f 37/106/7 38/105/7 42/111/7 41/112/7
f 44/113/8 40/91/8 46/114/8 48/115/8
f 38/92/8 40/91/8 44/113/8 42/116/8
f 46/117/9 45/118/9 47/119/9 48/120/9
f 39/93/10 43/96/10 47/121/10 45/122/10
f 43/110/5 44/109/5 48/123/5 47/124/5
f 40/125/6 39/126/6 45/127/6 46/128/6
f 36/129/15 34/130/15 54/131/15 56/132/15
f 35/133/16 36/129/16 56/132/16 55/134/16
f 50/135/17 52/136/17 60/137/17 58/138/17
f 52/136/18 51/139/18 59/140/18 60/137/18
f 55/141/9 56/142/9 60/143/9 59/144/9
f 56/145/8 54/146/8 58/147/8 60/148/8
f 53/149/10 55/150/10 59/151/10 57/152/10
f 54/153/7 53/154/7 57/155/7 58/156/7
f 51/139/19 49/157/19 57/158/19 59/140/19
f 49/157/20 50/135/20 58/138/20 57/158/20
f 33/159/21 35/133/21 55/134/21 53/160/21
f 34/130/22 33/159/22 53/160/22 54/131/22
