# Blender v2.79 (sub 0) OBJ File: 'SpiritStoneLowPoly.blend'
# www.blender.org
mtllib spirit_stone.mtl
o SpiritStone
v 0.479940 0.009684 0.607494
v 0.479940 0.070590 0.607494
v 0.397863 0.009684 0.560107
v 0.397863 0.070590 0.560107
v 0.397863 0.009684 0.465333
v 0.397863 0.070590 0.465333
v 0.479940 0.009684 0.417945
v 0.479940 0.070590 0.417945
v 0.562017 0.009684 0.465333
v 0.562017 0.070590 0.465333
v 0.562017 0.009684 0.560107
v 0.562017 0.070590 0.560107
vt 0.500000 1.000000
vt 0.333333 1.000000
vt 0.333333 0.666667
vt 0.500000 0.666667
vt 0.333333 1.000000
vt 0.166667 1.000000
vt 0.166667 0.666667
vt 0.333333 0.666667
vt 0.833333 1.000000
vt 0.666667 1.000000
vt 0.666667 0.666667
vt 0.833333 0.666667
vt 0.166667 1.000000
vt 0.000000 1.000000
vt 0.000000 0.666667
vt 0.166667 0.666667
vt 0.757776 0.000000
vt 1.002891 0.166667
vt 1.002891 0.500000
vt 0.757776 0.666667
vt 0.512661 0.500000
vt 0.512661 0.166667
vt 0.666667 1.000000
vt 0.500000 1.000000
vt 0.500000 0.666667
vt 0.666667 0.666667
vt 0.833333 0.666667
vt 1.000000 0.666667
vt 1.000000 1.000000
vt 0.833333 1.000000
vt 0.009145 0.500000
vt 0.009145 0.166667
vt 0.259753 0.000000
vt 0.510362 0.166667
vt 0.510362 0.500000
vt 0.259753 0.666667
vn -0.5000 0.0000 0.8660
vn -1.0000 0.0000 0.0000
vn -0.5000 0.0000 -0.8660
vn 0.5000 0.0000 -0.8660
vn 0.0000 1.0000 0.0000
vn 1.0000 0.0000 0.0000
vn 0.5000 0.0000 0.8660
vn 0.0000 -1.0000 0.0000
usemtl SpiritStone
s off
f 1/1/1 2/2/1 4/3/1 3/4/1
f 3/5/2 4/6/2 6/7/2 5/8/2
f 5/9/3 6/10/3 8/11/3 7/12/3
f 7/13/4 8/14/4 10/15/4 9/16/4
f 4/17/5 2/18/5 12/19/5 10/20/5 8/21/5 6/22/5
f 9/23/6 10/24/6 12/25/6 11/26/6
f 11/27/7 12/28/7 2/29/7 1/30/7
f 1/31/8 3/32/8 5/33/8 7/34/8 9/35/8 11/36/8
